<svg xmlns="http://www.w3.org/2000/svg" viewBox="0 0 224.06 66.41"><defs><style>.cls-1{fill:#101d4e;}.cls-2{fill:#3d58b7;}</style></defs><title>Ресурс 1</title><g id="Слой_2" data-name="Слой 2"><g id="Capa_1" data-name="Capa 1"><path class="cls-1" d="M45.74,36.08v.45H38.95v-.28A2.83,2.83,0,0,0,40.2,36a.76.76,0,0,0,.51-.69.92.92,0,0,0-.05-.28L39,30.2H33.46L31.79,35a.91.91,0,0,0-.05.28.76.76,0,0,0,.51.69,2.9,2.9,0,0,0,1.28.25v.28H29v-.27a1.88,1.88,0,0,0,2-1.19l6-17.54h.9L44,35.08a1.91,1.91,0,0,0,.58.91,1.83,1.83,0,0,0,1.13.29M36.19,22.55l-2.47,7.2h5Z"/><path class="cls-1" d="M61.13,23V35.73a7,7,0,0,0,.22,1.71h0l-9.75-11V35a4.07,4.07,0,0,0,.5.91,1.29,1.29,0,0,0,.86.29v.33H47.1v-.28A1.51,1.51,0,0,0,48.16,36a1.25,1.25,0,0,0,.29-.92V22.43a8.72,8.72,0,0,0-.21-1.74h.35L58,31.48V22.87a1.27,1.27,0,0,0-.29-.94,1.53,1.53,0,0,0-1.06-.29v0h6.34v.21a1.53,1.53,0,0,0-1.07.29,1.29,1.29,0,0,0-.29.94"/><path class="cls-1" d="M78.33,23V35.73a7,7,0,0,0,.22,1.71h-.16l-9.56-11V35a1.37,1.37,0,0,0,.31.91,1.49,1.49,0,0,0,1,.29v.33H64.3v-.28A1.51,1.51,0,0,0,65.36,36a1.25,1.25,0,0,0,.29-.92V22.43a8.72,8.72,0,0,0-.21-1.74h0l9.76,10.95V23a3.17,3.17,0,0,0-.5-.94,4.16,4.16,0,0,0-1.31-.29V21.6h6.34v.21a1.53,1.53,0,0,0-1.07.29,1.29,1.29,0,0,0-.29.94"/><path class="cls-1" d="M0,51.68a12.36,12.36,0,0,1,2.35-7.4,15.92,15.92,0,0,1,6.11-5.09,17.9,17.9,0,0,1,7.89-1.82,17.54,17.54,0,0,1,8.17,1.92l1.64,6.29h-.82a10.68,10.68,0,0,0-3.21-5.09,8.35,8.35,0,0,0-5.78-2.11,9.52,9.52,0,0,0-5.89,1.94,12.73,12.73,0,0,0-4,5A15.14,15.14,0,0,0,6.5,58a12.73,12.73,0,0,0,4,5A9.51,9.51,0,0,0,16.35,65a8.4,8.4,0,0,0,5.78-2.08,10.55,10.55,0,0,0,3.21-5.07h.82l-1.64,6.25A17.54,17.54,0,0,1,16.35,66a18.06,18.06,0,0,1-7.89-1.8,15.74,15.74,0,0,1-6.11-5.07A12.42,12.42,0,0,1,0,51.68"/><path class="cls-1" d="M51.62,45.59V63.72a1.52,1.52,0,0,0,.7,1.37,3.7,3.7,0,0,0,2,.46V66H43.93v-.41a3.75,3.75,0,0,0,2-.45,1.49,1.49,0,0,0,.71-1.35V55.09H36.23v8.67a1.49,1.49,0,0,0,.7,1.34,3.75,3.75,0,0,0,2,.45V66H28.54v-.41a3.73,3.73,0,0,0,2-.45,1.51,1.51,0,0,0,.71-1.36V45.59a1.56,1.56,0,0,0-.71-1.38,3.6,3.6,0,0,0-2-.47v-.41H38.95v.42a3.52,3.52,0,0,0-2,.49,1.61,1.61,0,0,0-.7,1.42v8.54H46.64v-8.4a1.57,1.57,0,0,0-.71-1.39,3.59,3.59,0,0,0-2-.48v-.6H54.34v.55a3.24,3.24,0,0,0-1.9.48,1.6,1.6,0,0,0-.66,1.39"/><path class="cls-1" d="M78.33,66v.45h-9.5V66q2.29,0,2.29-1.34l-.09-.5-1.69-4.07H61.47l-1.64,4.07a1.36,1.36,0,0,0-.13.55,1.06,1.06,0,0,0,.63.94A3.46,3.46,0,0,0,62,66v0H56.15v-.41a2.61,2.61,0,0,0,1.66-.43,3.27,3.27,0,0,0,.89-1.38L66.5,43.29a2.87,2.87,0,0,0,.24-.87h1.1l.29.87,7.95,20.53c0,.11.1.37.23.77a1.31,1.31,0,0,0,.62.83,2.68,2.68,0,0,0,1.22.23m-12.71-15-3.31,8.53h6.75Z"/><path class="cls-1" d="M96.88,48.3h-.46a6.25,6.25,0,0,0-2.23-2.63,6.48,6.48,0,0,0-3.69-1H87.83v9.05H91a9.17,9.17,0,0,0,2-.15,1.29,1.29,0,0,0,.89-.72A4.53,4.53,0,0,0,94.2,51h.42v7.24h-.43a4.31,4.31,0,0,0-.28-1.81,1.38,1.38,0,0,0-.93-.73,8.62,8.62,0,0,0-2-.17H87.83v8.61a1.52,1.52,0,0,0,.71,1.37,3.69,3.69,0,0,0,2,.46v.42H80.14V66a3.71,3.71,0,0,0,2-.46,1.51,1.51,0,0,0,.71-1.37V45.92a1.57,1.57,0,0,0-.71-1.39,3.59,3.59,0,0,0-2-.48v-.73H93.88a4.07,4.07,0,0,0,1.74,0,4.66,4.66,0,0,0,1.28-.43h0Z"/><path class="cls-1" d="M100.29,54.85a11,11,0,0,1,1.55-5.71A11.72,11.72,0,0,1,117.68,45a11.69,11.69,0,0,1,4.22,4.14,11.16,11.16,0,0,1,0,11.43,11.68,11.68,0,0,1-4.22,4.14,11.69,11.69,0,0,1-15.83-4.14,11,11,0,0,1-1.55-5.71m18,0a15,15,0,0,0-.87-5.19,9.62,9.62,0,0,0-2.34-3.77,4.4,4.4,0,0,0-6.42,0,9.61,9.61,0,0,0-2.34,3.77,16,16,0,0,0,0,10.39,9.6,9.6,0,0,0,2.34,3.77,4.4,4.4,0,0,0,6.42,0A9.6,9.6,0,0,0,117.43,60a15,15,0,0,0,.87-5.19"/><path class="cls-1" d="M127.66,57.81V45.6a1.83,1.83,0,0,0-.49-1.43,2.72,2.72,0,0,0-1.77-.43v-.41h9.5v.55a2.25,2.25,0,0,0-1.64.46c-.29.3-.17,1.41-.17,1.41V58q0,3.61,1.17,5.18a4.12,4.12,0,0,0,3.54,1.58,5.36,5.36,0,0,0,4.12-1.7A7.2,7.2,0,0,0,143.5,58V45.6a1.81,1.81,0,0,0-.5-1.43,2.72,2.72,0,0,0-1.77-.43v-.41h5.88v.41a2.63,2.63,0,0,0-1.78.46,1.84,1.84,0,0,0-.49,1.41V58A9,9,0,0,1,143,64a6.68,6.68,0,0,1-5.36,2.19,13.18,13.18,0,0,1-4.78-.87,8.44,8.44,0,0,1-3.7-2.73A7.32,7.32,0,0,1,127.68,58"/><path class="cls-1" d="M151.65,64.14V45.78a1.65,1.65,0,0,0-.71-1.44,3.48,3.48,0,0,0-2-.5v-.51h10.41v-.43q-2.72,0-2.72,1.94V65h2.8a10.92,10.92,0,0,0,3.88-.58A6.8,6.8,0,0,0,165.73,63a14.66,14.66,0,0,0,1.88-2.44h-.06l-1.86,5.88H148.93v-.63a3.45,3.45,0,0,0,1.92-.46,1.53,1.53,0,0,0,.68-1.37"/><path class="cls-1" d="M173.37,64.14V45.6a1.57,1.57,0,0,0-.71-1.39,3.59,3.59,0,0,0-2-.48v-.41h10.41v.41q-2.72,0-2.72,1.86V63.81a1.52,1.52,0,0,0,.7,1.37,3.69,3.69,0,0,0,2,.46v.77H170.65v-.63a3.45,3.45,0,0,0,1.92-.46,1.53,1.53,0,0,0,.68-1.37"/><path class="cls-1" d="M204.6,66v.45h-9.05V66q2.14,0,2.14-1.34l-.08-.5L196,60.07h-7.35l-1.53,4.07a1.44,1.44,0,0,0-.12.55,1.07,1.07,0,0,0,.59.94,3.05,3.05,0,0,0,1.59.36v0h-6.34v-.41a3,3,0,0,0,1.79-.43,3.26,3.26,0,0,0,1-1.38L194,43.29a2.71,2.71,0,0,0,.26-.87h.22l.29.87,7.95,20.53c0,.11.1.37.23.77a1.31,1.31,0,0,0,.62.83,2.68,2.68,0,0,0,1.22.23m-12.71-15-3.31,8.53h6.75Z"/><path class="cls-1" d="M207,61.92a5.68,5.68,0,0,1,.87-2.73l.79.25A5.68,5.68,0,0,0,210,63.34,5.32,5.32,0,0,0,214.29,65q2.77,0,3.85-1a3.42,3.42,0,0,0,1.08-2.67,2.54,2.54,0,0,0-1.16-2.15,19.59,19.59,0,0,0-3.64-1.86,36.83,36.83,0,0,1-3.89-1.9,8.14,8.14,0,0,1-2.57-2.4,6.53,6.53,0,0,1-1.08-3.85,4.86,4.86,0,0,1,1-3A7.24,7.24,0,0,1,210.85,44a10.48,10.48,0,0,1,4.31-.85,24.16,24.16,0,0,1,2.57.06q1.45.1,4.35.39l-.17.52a5.07,5.07,0,0,0-.19.89,9.51,9.51,0,0,0-.06,1.16q0,1.2.17,3H221a5.38,5.38,0,0,0-1.2-3.48,5.69,5.69,0,0,0-6.93-.58,2.79,2.79,0,0,0-1.26,2.36,3,3,0,0,0,.68,2A5.88,5.88,0,0,0,214,50.88q1,.56,2.81,1.39a33.34,33.34,0,0,1,3.77,1.92A8.23,8.23,0,0,1,223,56.6a6.48,6.48,0,0,1,1,3.75,4.9,4.9,0,0,1-2.61,4.55,14.08,14.08,0,0,1-7.11,1.49,9.55,9.55,0,0,1-2.2-.26,8.92,8.92,0,0,1-4.08-2,3,3,0,0,1-1.1-2.19"/><path class="cls-2" d="M134,6.78a6.78,6.78,0,1,1,6.78,6.78A6.78,6.78,0,0,1,134,6.78"/><polygon class="cls-2" points="222.03 36.99 185.07 9 165.47 23.68 156.6 16.74 129.34 36.99 222.03 36.99"/><path class="cls-1" d="M191.44,25.92a.62.62,0,0,1,.49.62v3.11s.69,1.22,1.36,1.37a1.84,1.84,0,0,0,.65,0l1.19-.17.17-9.12-.78-.15c-1.29,0-2.59-2.52-2.59-2.52V17.27a.45.45,0,0,1,.5-.45.47.47,0,0,1,.41.48v1.76s.22.08.22.12A1.42,1.42,0,0,0,195,20.34l.33-.13.2-10.35a.79.79,0,0,1,.79-.79c.44,0,1,.79,1,.79v7l.91-.7V13.89s.11-.35.3-.35.6.35.6.35v2.22a2,2,0,0,1-1.81,2v7.43l.64.22a1.55,1.55,0,0,0,1.13-.05c.45-.21.5-1.2.5-1.2V19.86s.61-.68,1-.6.35.62.35.62v4.85a2.76,2.76,0,0,1-2.76,2.76h-.86l.12,9.5h-2.4l.08-4.07h-1A3.17,3.17,0,0,1,191,29.75V26.52a.61.61,0,0,1,.74-.6"/><path class="cls-1" d="M178.95,30.05a.39.39,0,0,1,.31.39v2s.5.77.92.86a1.15,1.15,0,0,0,.41,0l.75-.11.11-5.73-.49-.1c-.81,0-1.24-1.58-1.24-1.58V24.61s-.1-.29.07-.27.38.29.38.29v1.29a.84.84,0,0,0,.07.33.94.94,0,0,0,1.21.54l.25-.1.13-6.94a.53.53,0,0,1,1.06,0v4.62l.45-.44V22.5a.23.23,0,0,1,.45,0v1.43l-.91,1.2v4.71l.25.14a1,1,0,0,0,.71,0c.29-.14.39-.75.39-.75v-3s.3-.43.55-.38.36.39.36.39v3.11a1.74,1.74,0,0,1-1.74,1.74h-.53L183,37h-1.54l.05-2.72h-.67a2,2,0,0,1-2-2V30.43a.39.39,0,0,1,.47-.38"/><path class="cls-1" d="M91,37h48a36.23,36.23,0,0,1-2.76-3.62h4.57A28.56,28.56,0,0,1,135.33,27h3.17a18.75,18.75,0,0,1-5.83-8.29c-1.81,5.31-5.83,8.54-5.83,8.29H130a22.75,22.75,0,0,1-3.26,4.48c-1.17-1.18-5.2-6.74-5.2-6.74H126a26.37,26.37,0,0,1-5.08-6.34H124A23,23,0,0,1,117.94,9a23,23,0,0,1-6.06,9.48H115a27.17,27.17,0,0,1-5.15,6.43c-1.44-1.52-4.36-5-5.25-8.8-1.19,5.13-6.06,9.61-6.06,9.61h3.27a37.43,37.43,0,0,1-4.42,5.75,20.2,20.2,0,0,1-3.73-5.22v-.47s.49,0,.45.13c0-.08-.06-.13,0-.13V26c-.58,1-2.55,4.64-5,6h2.73a36.71,36.71,0,0,1-4.77,5H91l0,0m16.8-11.34h3.18c0-.2-.3-.48-.78-.91h4.44a41.44,41.44,0,0,1-3.68,5.08,35.55,35.55,0,0,1-3.21-4.37"/></g></g></svg>